PathFileType	4	(X/Y/Z)	 2.6Hz3min.trc
DataRate	CameraRate	NumFrames	NumMarkers	Units	OrigDataRate	OrigDataStartFrame	OrigNumFrames
200	200	9	43	m	200	1	1000
Frame#	Time	C7			LSH			RSH			MAN			RASI			LASI			HIPR			HIPL			RPSI			LPSI			COX			RTHI1			RTHI2			RTHI3			RTHI4			RLKN			RMKN			RSHA1			RSHA2			RSHA3			RSHA4			RLMAL			RMMAL			RHEEL			RMET5			RMET1			RTOE			LTHI1			LTHI2			LTHI3			LTHI4			LLKN			LMKN			LSHA1			LSHA2			LSHA3			LSHA4			LLMAL			LMMAL			LHEEL			LMET5			LMET1			LTOE			
		X1	Y1	Z1	X2	Y2	Z2	X3	Y3	Z3	X4	Y4	Z4	X5	Y5	Z5	X6	Y6	Z6	X7	Y7	Z7	X8	Y8	Z8	X9	Y9	Z9	X10	Y10	Z10	X11	Y11	Z11	X12	Y12	Z12	X13	Y13	Z13	X14	Y14	Z14	X15	Y15	Z15	X16	Y16	Z16	X17	Y17	Z17	X18	Y18	Z18	X19	Y19	Z19	X20	Y20	Z20	X21	Y21	Z21	X22	Y22	Z22	X23	Y23	Z23	X24	Y24	Z24	X25	Y25	Z25	X26	Y26	Z26	X27	Y27	Z27	X28	Y28	Z28	X29	Y29	Z29	X30	Y30	Z30	X31	Y31	Z31	X32	Y32	Z32	X33	Y33	Z33	X34	Y34	Z34	X35	Y35	Z35	X36	Y36	Z36	X37	Y37	Z37	X38	Y38	Z38	X39	Y39	Z39	X40	Y40	Z40	X41	Y41	Z41	X42	Y42	Z42	X43	Y43	Z43	
1	0.0050	-0.287671	1.446278	-0.465064	-0.257938	1.454045	-0.651430	-0.211477	1.431679	-0.294546	-0.160115	1.375865	-0.479111	-0.177519	0.953877	-0.381320	-0.193730	0.961944	-0.601856	-0.227019	0.992460	-0.341240	-0.265428	0.997562	-0.626877	-0.332018	0.993023	-0.415585	-0.338394	0.996899	-0.526326	-0.338021	0.995292	-0.473093	-0.260095	0.760169	-0.296613	-0.253549	0.698924	-0.296074	-0.182609	0.714003	-0.302695	-0.195813	0.772326	-0.304053	-0.215412	0.452254	-0.307553	-0.214777	0.435468	-0.405708	-0.345462	0.296577	-0.295083	-0.361343	0.258187	-0.305968	-0.303767	0.238703	-0.297241	-0.291206	0.277120	-0.290786	-0.372842	0.105398	-0.310630	-0.363104	0.113752	-0.391615	-0.431345	0.093163	-0.345497	-0.282537	0.032659	-0.286987	-0.236551	0.043532	-0.365105	-0.205643	0.033184	-0.364509	-0.293068	0.739844	-0.678216	-0.286993	0.680653	-0.683910	-0.215101	0.691201	-0.691884	-0.230089	0.751098	-0.685610	-0.245497	0.458706	-0.691876	-0.240990	0.440847	-0.589988	-0.372335	0.281712	-0.705442	-0.388468	0.244670	-0.696109	-0.329564	0.225016	-0.697190	-0.320552	0.267032	-0.705854	-0.396637	0.116651	-0.694874	-0.395583	0.119064	-0.617836	-0.456514	0.104851	-0.662840	-0.299415	0.036826	-0.709079	-0.264593	0.043784	-0.633905	-0.240634	0.036253	-0.636659	
2	0.0100	-0.287650	1.449456	-0.465096	-0.257944	1.457376	-0.651325	-0.211364	1.435211	-0.294690	-0.160067	1.379186	-0.479171	-0.177048	0.957197	-0.381408	-0.193188	0.965536	-0.601674	-0.226383	0.996067	-0.341503	-0.264326	1.001676	-0.626481	-0.331494	0.996242	-0.415420	-0.337900	1.000421	-0.526378	-0.337521	0.998624	-0.473074	-0.259437	0.763195	-0.297199	-0.253692	0.701988	-0.296273	-0.182671	0.716896	-0.302842	-0.195738	0.775225	-0.304201	-0.215935	0.455242	-0.307947	-0.215074	0.438419	-0.405957	-0.345265	0.299132	-0.295294	-0.361126	0.260612	-0.306239	-0.303447	0.241437	-0.297411	-0.291047	0.279921	-0.290825	-0.371779	0.107595	-0.310444	-0.361833	0.115938	-0.391446	-0.430162	0.095738	-0.345422	-0.282124	0.033044	-0.287251	-0.236161	0.043423	-0.365080	-0.205505	0.033125	-0.364566	-0.292948	0.743185	-0.678177	-0.287035	0.683970	-0.683810	-0.215090	0.694309	-0.691712	-0.229929	0.754225	-0.685516	-0.246241	0.461912	-0.691594	-0.241559	0.443992	-0.589703	-0.371899	0.284469	-0.705603	-0.388029	0.247193	-0.696191	-0.329053	0.227912	-0.697387	-0.320269	0.269962	-0.706020	-0.395512	0.119050	-0.695311	-0.394328	0.121353	-0.618278	-0.455113	0.107352	-0.663243	-0.298934	0.037068	-0.709010	-0.264390	0.043745	-0.633926	-0.240597	0.036269	-0.636594	
3	0.0150	-0.287631	1.452941	-0.465100	-0.257979	1.461142	-0.651187	-0.211282	1.439190	-0.294842	-0.160061	1.382933	-0.479223	-0.176527	0.960871	-0.381468	-0.192615	0.969449	-0.601570	-0.225756	0.999919	-0.341731	-0.263272	1.005991	-0.626214	-0.330856	0.999788	-0.415336	-0.337316	1.004239	-0.526480	-0.336944	1.002282	-0.473094	-0.259135	0.766621	-0.297578	-0.253926	0.705398	-0.296474	-0.182759	0.720089	-0.303012	-0.195633	0.778471	-0.304371	-0.216743	0.458644	-0.308294	-0.215632	0.441746	-0.406228	-0.345232	0.301989	-0.295504	-0.360925	0.263376	-0.306458	-0.303135	0.244511	-0.297461	-0.290961	0.283065	-0.290969	-0.370700	0.110105	-0.310340	-0.360407	0.118353	-0.391200	-0.428843	0.098631	-0.345253	-0.281686	0.033443	-0.287478	-0.235764	0.043244	-0.365101	-0.205418	0.033076	-0.364643	-0.292851	0.746859	-0.678150	-0.287145	0.687606	-0.683694	-0.215140	0.697674	-0.691491	-0.229779	0.757651	-0.685413	-0.247159	0.465448	-0.691253	-0.242373	0.447509	-0.589304	-0.371607	0.287402	-0.705638	-0.387584	0.249935	-0.696215	-0.328494	0.231079	-0.697608	-0.319999	0.273173	-0.706169	-0.394215	0.121655	-0.695761	-0.392846	0.123815	-0.618816	-0.453626	0.110188	-0.663634	-0.298451	0.037322	-0.708978	-0.264193	0.043668	-0.633937	-0.240578	0.036267	-0.636528	
4	0.0200	-0.287639	1.456506	-0.465100	-0.258026	1.465003	-0.651041	-0.211210	1.443260	-0.295003	-0.160070	1.386783	-0.479270	-0.175991	0.964619	-0.381528	-0.192035	0.973424	-0.601475	-0.225112	1.003828	-0.341968	-0.262220	1.010350	-0.625962	-0.330203	1.003420	-0.415282	-0.336711	1.008125	-0.526594	-0.336349	1.006014	-0.473127	-0.258846	0.770132	-0.297948	-0.254165	0.708896	-0.296672	-0.182860	0.723349	-0.303187	-0.195528	0.781782	-0.304549	-0.217599	0.462124	-0.308621	-0.216234	0.445145	-0.406497	-0.345211	0.304896	-0.295723	-0.360726	0.266196	-0.306677	-0.302854	0.247660	-0.297519	-0.290871	0.286267	-0.291174	-0.369596	0.112690	-0.310190	-0.358942	0.120804	-0.390924	-0.427498	0.101565	-0.345090	-0.281214	0.033873	-0.287722	-0.235388	0.043103	-0.365073	-0.205326	0.033046	-0.364734	-0.292763	0.750597	-0.678125	-0.287269	0.691313	-0.683585	-0.215198	0.701107	-0.691275	-0.229635	0.761141	-0.685306	-0.248115	0.469053	-0.690901	-0.243241	0.451104	-0.588884	-0.371356	0.290352	-0.705613	-0.387125	0.252728	-0.696219	-0.327920	0.234302	-0.697826	-0.319728	0.276453	-0.706302	-0.392877	0.124301	-0.696200	-0.391268	0.126301	-0.619367	-0.452074	0.113051	-0.663997	-0.297937	0.037613	-0.708907	-0.263980	0.043609	-0.633965	-0.240558	0.036277	-0.636473	
5	0.0250	-0.287687	1.460312	-0.465083	-0.258105	1.469177	-0.650865	-0.211167	1.447641	-0.295176	-0.160116	1.390954	-0.479309	-0.175409	0.968618	-0.381581	-0.191430	0.977621	-0.601426	-0.224445	1.007930	-0.342206	-0.261188	1.014850	-0.625779	-0.329480	1.007310	-0.415298	-0.336037	1.012234	-0.526747	-0.335694	1.009990	-0.473197	-0.258727	0.773929	-0.298215	-0.254406	0.712660	-0.296887	-0.182987	0.726828	-0.303379	-0.195409	0.785329	-0.304747	-0.218641	0.465889	-0.308899	-0.217009	0.448804	-0.406772	-0.345281	0.308004	-0.295957	-0.360524	0.269210	-0.306880	-0.302583	0.251050	-0.297504	-0.290805	0.289702	-0.291394	-0.368444	0.115501	-0.310007	-0.357345	0.123411	-0.390580	-0.426020	0.104692	-0.344912	-0.280710	0.034325	-0.287949	-0.235024	0.042975	-0.365021	-0.205246	0.033043	-0.364826	-0.292693	0.754574	-0.678109	-0.287439	0.695253	-0.683473	-0.215298	0.704739	-0.691042	-0.229501	0.764845	-0.685194	-0.249196	0.472893	-0.690510	-0.244282	0.454963	-0.588387	-0.371195	0.293424	-0.705465	-0.386650	0.255675	-0.696165	-0.327307	0.237727	-0.698055	-0.319464	0.279947	-0.706403	-0.391406	0.127082	-0.696627	-0.389490	0.128893	-0.619957	-0.450396	0.116108	-0.664314	-0.297414	0.037912	-0.708824	-0.263753	0.043546	-0.633998	-0.240540	0.036292	-0.636427	
6	0.0300	-0.287809	1.464313	-0.465063	-0.258230	1.473585	-0.650670	-0.211152	1.452234	-0.295380	-0.160202	1.395398	-0.479337	-0.174788	0.972796	-0.381636	-0.190807	0.981969	-0.601403	-0.223732	1.012194	-0.342468	-0.260142	1.019455	-0.625632	-0.328726	1.011430	-0.415386	-0.335303	1.016520	-0.526936	-0.334992	1.014160	-0.473312	-0.258660	0.777939	-0.298448	-0.254622	0.716652	-0.297114	-0.183145	0.730478	-0.303589	-0.195285	0.789054	-0.304972	-0.219843	0.469858	-0.309116	-0.217895	0.452643	-0.407037	-0.345376	0.311261	-0.296192	-0.360301	0.272344	-0.307094	-0.302316	0.254614	-0.297444	-0.290753	0.293277	-0.291631	-0.367192	0.118436	-0.309789	-0.355635	0.126095	-0.390147	-0.424434	0.107951	-0.344759	-0.280142	0.034819	-0.288175	-0.234658	0.042860	-0.364946	-0.205186	0.033054	-0.364915	-0.292636	0.758729	-0.678109	-0.287642	0.699380	-0.683384	-0.215428	0.708521	-0.690806	-0.229374	0.768707	-0.685081	-0.250379	0.476901	-0.690088	-0.245453	0.459011	-0.587837	-0.371242	0.296490	-0.705079	-0.386134	0.258744	-0.696052	-0.326652	0.241300	-0.698287	-0.319195	0.283614	-0.706458	-0.389811	0.129958	-0.697022	-0.387514	0.131553	-0.620531	-0.448562	0.119289	-0.664572	-0.296871	0.038235	-0.708711	-0.263511	0.043489	-0.634046	-0.240529	0.036307	-0.636394	
7	0.0350	-0.287998	1.468506	-0.465031	-0.258402	1.478241	-0.650443	-0.211181	1.457060	-0.295600	-0.160346	1.400111	-0.479356	-0.174125	0.977158	-0.381707	-0.190162	0.986461	-0.601406	-0.222961	1.016644	-0.342758	-0.259101	1.024170	-0.625518	-0.327923	1.015781	-0.415537	-0.334510	1.020993	-0.527164	-0.334241	1.018542	-0.473459	-0.258651	0.782168	-0.298640	-0.254809	0.720869	-0.297349	-0.183336	0.734296	-0.303807	-0.195156	0.792950	-0.305211	-0.221165	0.474034	-0.309297	-0.218889	0.456667	-0.407292	-0.345503	0.314653	-0.296457	-0.360051	0.275611	-0.307303	-0.302053	0.258346	-0.297333	-0.290728	0.297047	-0.291831	-0.365806	0.121471	-0.309533	-0.353772	0.128878	-0.389648	-0.422697	0.111314	-0.344638	-0.279527	0.035352	-0.288388	-0.234325	0.042791	-0.364809	-0.205149	0.033082	-0.365001	-0.292579	0.763076	-0.678128	-0.287876	0.703693	-0.683306	-0.215577	0.712470	-0.690586	-0.229243	0.772733	-0.684968	-0.251664	0.481083	-0.689641	-0.246728	0.463255	-0.587237	-0.371259	0.299686	-0.704613	-0.385572	0.261928	-0.695868	-0.325950	0.245031	-0.698531	-0.318917	0.287454	-0.706475	-0.388076	0.132924	-0.697383	-0.385309	0.134294	-0.621091	-0.446557	0.122590	-0.664732	-0.296294	0.038585	-0.708564	-0.263255	0.043449	-0.634105	-0.240513	0.036332	-0.636375	
8	0.0400	-0.288260	1.472838	-0.464989	-0.258631	1.483084	-0.650181	-0.211260	1.462058	-0.295835	-0.160548	1.405049	-0.479366	-0.173421	0.981655	-0.381807	-0.189494	0.991047	-0.601429	-0.222118	1.021272	-0.343082	-0.258063	1.028973	-0.625420	-0.327079	1.020329	-0.415739	-0.333663	1.025627	-0.527427	-0.333445	1.023104	-0.473643	-0.258654	0.786565	-0.298822	-0.254963	0.725262	-0.297588	-0.183562	0.738245	-0.304027	-0.195030	0.796966	-0.305458	-0.222571	0.478356	-0.309440	-0.219949	0.460824	-0.407533	-0.345634	0.318140	-0.296742	-0.359768	0.278945	-0.307513	-0.301773	0.262215	-0.297167	-0.290751	0.300992	-0.291770	-0.364261	0.124558	-0.309212	-0.351739	0.131729	-0.389098	-0.420794	0.114739	-0.344570	-0.278902	0.035900	-0.288584	-0.233995	0.042743	-0.364684	-0.205114	0.033130	-0.365075	-0.292515	0.767577	-0.678161	-0.288127	0.708162	-0.683238	-0.215751	0.716545	-0.690373	-0.229104	0.776881	-0.684862	-0.253036	0.485393	-0.689174	-0.248064	0.467646	-0.586603	-0.371224	0.302981	-0.704043	-0.384956	0.265194	-0.695608	-0.325194	0.248885	-0.698787	-0.318617	0.291432	-0.706460	-0.386202	0.135944	-0.697708	-0.382976	0.137121	-0.621588	-0.444364	0.125961	-0.664777	-0.295727	0.038951	-0.708394	-0.262972	0.043432	-0.634197	-0.240487	0.036371	-0.636386	
9	0.0450	-0.288587	1.477262	-0.464942	-0.258922	1.488055	-0.649887	-0.211395	1.467165	-0.296087	-0.160808	1.410159	-0.479368	-0.172687	0.986233	-0.381942	-0.188805	0.995681	-0.601467	-0.221202	1.026066	-0.343438	-0.257018	1.033835	-0.625332	-0.326203	1.025042	-0.415977	-0.332775	1.030394	-0.527719	-0.332613	1.027822	-0.473853	-0.258663	0.791077	-0.298997	-0.255087	0.729780	-0.297836	-0.183823	0.742281	-0.304242	-0.194906	0.801065	-0.305712	-0.224059	0.482777	-0.309551	-0.221049	0.465068	-0.407754	-0.345745	0.321683	-0.297038	-0.359440	0.282297	-0.307770	-0.301412	0.266145	-0.296912	-0.290742	0.305011	-0.291585	-0.362542	0.127611	-0.308893	-0.349534	0.134620	-0.388507	-0.418714	0.118207	-0.344531	-0.278246	0.036475	-0.288768	-0.233673	0.042700	-0.364550	-0.205098	0.033188	-0.365138	-0.292428	0.772205	-0.678212	-0.288388	0.712752	-0.683181	-0.215938	0.720702	-0.690174	-0.228945	0.781117	-0.684770	-0.254485	0.489794	-0.688693	-0.249415	0.472128	-0.585955	-0.371138	0.306337	-0.703375	-0.384274	0.268505	-0.695277	-0.324387	0.252823	-0.699053	-0.318285	0.295501	-0.706416	-0.384183	0.138982	-0.697997	-0.380474	0.139994	-0.622019	-0.441998	0.129417	-0.664711	-0.295180	0.039308	-0.708246	-0.262685	0.043422	-0.634283	-0.240453	0.036409	-0.636416	
